<svg xmlns="http://www.w3.org/2000/svg" width="520" height="128" viewBox="0 0 520 128" role="img" aria-labelledby="title desc">
  <title id="title">RepoLens 横版 Logo</title>
  <desc id="desc">RepoLens 横版品牌标识，包含几何图形标志和文字标识。</desc>
  <defs>
    <linearGradient id="rl-bg" x1="20" y1="16" x2="110" y2="116" gradientUnits="userSpaceOnUse">
      <stop offset="0" stop-color="#7d2ae8"/>
      <stop offset="1" stop-color="#00c4cc"/>
    </linearGradient>
    <linearGradient id="rl-card" x1="31" y1="30" x2="98" y2="100" gradientUnits="userSpaceOnUse">
      <stop offset="0" stop-color="#ffffff"/>
      <stop offset="1" stop-color="#eef0fc"/>
    </linearGradient>
    <filter id="rl-shadow" x="-20%" y="-20%" width="140%" height="150%" color-interpolation-filters="sRGB">
      <feDropShadow dx="0" dy="10" stdDeviation="12" flood-color="#0e1318" flood-opacity="0.16"/>
    </filter>
  </defs>
  <g>
    <rect width="128" height="128" rx="30" fill="url(#rl-bg)"/>
    <path d="M28 43.5C28 37.1 33.1 32 39.5 32H54l7.2 8H88.5C94.9 40 100 45.1 100 51.5V91c0 7.2-5.8 13-13 13H41c-7.2 0-13-5.8-13-13V43.5Z" fill="url(#rl-card)" filter="url(#rl-shadow)"/>
    <path d="M37 54H91" stroke="#c7cdd3" stroke-width="4" stroke-linecap="round"/>
    <path d="M43 72H55M43 86H51M78 86H87" stroke="#9aa0a6" stroke-width="5" stroke-linecap="round"/>
    <path d="M59.5 64.5C63.4 60.9 68.7 59 74.5 59C87.5 59 98 69.5 98 82.5C98 95.5 87.5 106 74.5 106C61.5 106 51 95.5 51 82.5C51 78.7 51.9 75 53.5 71.9" fill="none" stroke="#0e1318" stroke-width="7" stroke-linecap="round"/>
    <path d="M73 69.5V82.5H86" fill="none" stroke="#7d2ae8" stroke-width="7" stroke-linecap="round" stroke-linejoin="round"/>
    <circle cx="74.5" cy="82.5" r="8" fill="#00c4cc" stroke="#ffffff" stroke-width="4"/>
    <circle cx="43" cy="72" r="4" fill="#7d2ae8"/>
    <circle cx="87" cy="86" r="4" fill="#00b894"/>
  </g>
  <g transform="translate(154 31)">
    <text x="0" y="44" fill="#0e1318" font-family="Canva Sans, YS Text, system-ui, -apple-system, sans-serif" font-size="48" font-weight="800" letter-spacing="-0.8">RepoLens</text>
    <text x="2" y="76" fill="#5f6368" font-family="JetBrains Mono, ui-monospace, Menlo, Consolas, monospace" font-size="13" font-weight="600" letter-spacing="1.1">LOCAL CODE LIBRARY</text>
    <rect x="252" y="59" width="74" height="22" rx="11" fill="#eef0fc"/>
    <text x="266" y="75" fill="#7d2ae8" font-family="Canva Sans, YS Text, system-ui, -apple-system, sans-serif" font-size="11" font-weight="800">本地优先</text>
  </g>
</svg>
